<svg fill="none" height="30" viewBox="0 0 64 30" width="64" xmlns="http://www.w3.org/2000/svg"><path d="m11.8178 28.4536h-6.44608c-2.14868 0-3.83693-1.701-3.83693-3.7113v-19.32993c0-2.16495 1.68825-3.86598 3.83693-3.86598h34.07198" stroke="#ff6c37" stroke-linecap="round" stroke-linejoin="round" stroke-miterlimit="10" stroke-width="2"/><path d="m53.2566 1.54639h5.5251c2.1487 0 3.837 1.70103 3.837 3.86598v19.32993c0 2.1649-1.6883 3.8659-3.837 3.8659h-32.8441" stroke="#ff6c37" stroke-linecap="round" stroke-linejoin="round" stroke-miterlimit="10" stroke-width="2"/><path d="m44.2015 1.54639h3.9904" stroke="#ff6c37" stroke-linecap="round" stroke-linejoin="round" stroke-miterlimit="10" stroke-width="2"/><g fill="#ff6c37"><path d="m20.566 22.1134h-2.9161l-5.6787-9.433v9.433h-2.91602v-14.38147h2.91602l5.6787 9.43297v-9.43297h2.9161z"/><path d="m31.7698 15.9278h-5.6787v3.866h6.5995v2.3196h-9.5156v-14.38147h9.5156v2.31957h-6.5995v3.4021h5.6787z"/><path d="m45.4294 17.9381 1.9952-10.20617h2.916l-3.223 14.38147h-2.9161l-2.3021-9.5877-2.3022 9.5877h-2.916l-3.2231-14.38147h2.9161l1.9952 10.20617 2.3022-10.20617h2.4556z"/><path d="m53.4101 19.3299c.4605 0 .9209.1546 1.0744.4639.3069.3093.4604.6185.4604 1.0825 0 .4639-.1535.7732-.4604 1.0824-.307.3093-.6139.464-1.0744.464-.4604 0-.9208-.1547-1.0743-.464-.1535-.3092-.4604-.6185-.4604-1.0824 0-.464.1534-.7732.4604-1.0825.3069-.4639.6139-.4639 1.0743-.4639zm1.2278-1.7011h-2.3021l-.4604-9.89687h3.0695z"/></g><path d="m16.8824 28.4536h3.9905" stroke="#ff6c37" stroke-linecap="round" stroke-linejoin="round" stroke-miterlimit="10" stroke-width="2"/></svg>